<svg id="Icons" height="512" viewBox="0 0 60 60" width="512" xmlns="http://www.w3.org/2000/svg"><path d="m52 9v25a3 3 0 0 1 -3 3h-38a3 3 0 0 1 -3-3v-25l1-1h42z" fill="#d7dce3"/><path d="m52 4v5h-44v-5a3 3 0 0 1 3-3h38a3 3 0 0 1 3 3z" fill="#3d7192"/><path d="m36.18 26h-2.18v18h-8v-18h-2.18a.885.885 0 0 1 -.64-1.43l6.18-8.24a.786.786 0 0 1 1.28 0l6.18 8.24a.885.885 0 0 1 -.64 1.43z" fill="#62b29a"/><rect fill="#3d7192" height="16" rx="3" width="26" x="17" y="43"/><g fill="#373737"><path d="m49 38a4 4 0 0 0 4-4v-30a4 4 0 0 0 -4-4h-38a4 4 0 0 0 -4 4v5a1 1 0 0 0 1 1h43v24a2 2 0 0 1 -2 2h-14v-9h1.18a1.808 1.808 0 0 0 1.62-1.01 1.917 1.917 0 0 0 -.175-2.019l-6.186-8.241a1.834 1.834 0 0 0 -2.878 0l-6.185 8.245a1.917 1.917 0 0 0 -.171 2.015 1.808 1.808 0 0 0 1.615 1.01h1.18v9h-14a2 2 0 0 1 -2-2v-21a1 1 0 0 0 -2 0v21a4 4 0 0 0 4 4h14v4h-5a4 4 0 0 0 -4 4v10a4 4 0 0 0 4 4h20a4 4 0 0 0 4-4v-10a4 4 0 0 0 -4-4h-5v-4zm-40-30v-4a2 2 0 0 1 2-2h38a2 2 0 0 1 2 2v4zm33 38v10a2 2 0 0 1 -2 2h-20a2 2 0 0 1 -2-2v-10a2 2 0 0 1 2-2h20a2 2 0 0 1 2 2zm-15-4v-16a1 1 0 0 0 -1-1h-1.893l5.893-7.857 5.94 7.857h-1.94a1 1 0 0 0 -1 1v16z"/><path d="m25.832 48.445a1 1 0 0 0 -1.387-.277l-3 2a1 1 0 0 0 0 1.664l3 2a1 1 0 1 0 1.11-1.664l-1.755-1.168 1.752-1.168a1 1 0 0 0 .28-1.387z"/><path d="m34.168 53.555a1 1 0 0 0 1.387.277l3-2a1 1 0 0 0 0-1.664l-3-2a1 1 0 0 0 -1.11 1.664l1.755 1.168-1.752 1.168a1 1 0 0 0 -.28 1.387z"/><path d="m31.316 47.052a1 1 0 0 0 -1.264.632l-2 6a1 1 0 1 0 1.9.632l2-6a1 1 0 0 0 -.636-1.264z"/><path d="m13 4h-1a1 1 0 0 0 0 2h1a1 1 0 0 0 0-2z"/><path d="m18 4h-1a1 1 0 0 0 0 2h1a1 1 0 0 0 0-2z"/><path d="m23 4h-1a1 1 0 0 0 0 2h1a1 1 0 0 0 0-2z"/><path d="m48 4h-4a1 1 0 0 0 0 2h4a1 1 0 0 0 0-2z"/></g></svg>