<svg id="Capa_1" enable-background="new 0 0 512 512" height="512" viewBox="0 0 512 512" width="512" xmlns="http://www.w3.org/2000/svg"><g><g><g><path d="m504.5 64.908c0-9.99-8.1-18.08-18.08-18.08h-460.84c-9.98 0-18.08 8.09-18.08 18.08v225.71l23.108 21.434v.005h450.784v-.005l23.108-21.434z" fill="#2b3890"/><path d="m486.42 46.828h-18.352c9.98 0 18.08 8.09 18.08 18.08v242.732l18.352-17.023v-225.709c0-9.99-8.1-18.08-18.08-18.08z" fill="#242e7a"/></g><path d="m504.5 290.618v63.01c0 9.99-8.1 18.09-18.08 18.09h-460.84c-9.98 0-18.08-8.1-18.08-18.09v-63.01z" fill="#dae7ef"/><path d="m486.149 290.618v63.01c0 9.99-8.1 18.09-18.08 18.09h18.352c9.98 0 18.08-8.1 18.08-18.09v-63.01z" fill="#c1d5e4"/></g><path d="m35.5 290.622v-212.657c0-1.734 1.406-3.14 3.14-3.14h434.72c1.734 0 3.14 1.406 3.14 3.14v212.657z" fill="#eab14d"/><path d="m456.909 74.825v215.797h19.591v-212.657c0-1.734-1.406-3.14-3.14-3.14z" fill="#e7a52e"/><path d="m354.794 465.173h-197.588c-2.313 0-3.922-2.3-3.129-4.473l4.515-12.372c2.095-5.742 8.575-9.678 15.929-9.678h162.959c7.354 0 13.834 3.937 15.929 9.678l4.515 12.372c.792 2.173-.817 4.473-3.13 4.473z" fill="#dae7ef"/><path d="m301.185 371.718h-90.369c8.314 26.27.748 49.914-22.697 66.932h135.762c-23.444-17.018-31.01-40.662-22.696-66.932z" fill="#c1d5e4"/><path d="m210.816 371.718c2.085 6.589 3.17 13.012 3.258 19.207h83.854c.087-6.195 1.172-12.618 3.258-19.207z" fill="#98b9d3"/><path d="m167.52 74.824h308.98v161.3h-308.98z" fill="#f9f6f6"/><path d="m473.36 74.825h-16.451v161.299h19.591v-158.159c0-1.734-1.406-3.14-3.14-3.14z" fill="#dae7ef"/><path d="m222.829 103.871h198.362v51.603h-198.362z" fill="#dd5ca2"/><path d="m404.063 103.871h17.128v51.604h-17.128z" fill="#da4093"/><path d="m222.829 189.413h79.173v46.711h-79.173z" fill="#80b4fb"/><path d="m288.602 189.413h13.4v46.711h-13.4z" fill="#61a2f9"/><path d="m342.018 189.413h79.173v46.711h-79.173z" fill="#80b4fb"/><path d="m407.791 189.413h13.4v46.711h-13.4z" fill="#61a2f9"/><g><path d="m486.42 39.328h-460.84c-14.104 0-25.58 11.475-25.58 25.58v288.72c0 14.11 11.476 25.59 25.58 25.59h179.508c4.713 20.52-1.946 38.352-19.467 51.933h-11.1c-10.553 0-19.785 5.87-22.975 14.607l-4.515 12.371c-1.211 3.318-.725 7.027 1.3 9.922 2.025 2.894 5.343 4.622 8.875 4.622h197.588c3.533 0 6.852-1.729 8.877-4.624 2.024-2.896 2.509-6.604 1.298-9.92l-4.515-12.37c-3.188-8.737-12.42-14.608-22.975-14.608h-11.1c-17.52-13.581-24.18-31.413-19.467-51.933h75.521c4.143 0 7.5-3.357 7.5-7.5s-3.357-7.5-7.5-7.5c-37.712 0-322.513 0-356.854 0-5.834 0-10.58-4.751-10.58-10.59v-55.51c579.881.002 425.026.001 482 0v55.51c0 5.839-4.746 10.59-10.58 10.59h-73.999c-4.143 0-7.5 3.357-7.5 7.5s3.357 7.5 7.5 7.5h73.999c14.104 0 25.58-11.479 25.58-25.59v-288.72c.001-14.105-11.475-25.58-25.579-25.58zm-140.058 411.572 2.472 6.772h-185.668l2.472-6.772c.861-2.36 4.189-4.75 8.883-4.75h162.959c4.694 0 8.022 2.389 8.882 4.75zm-54.78-71.683c-3.583 19.407.991 37.207 13.228 51.933h-97.62c12.237-14.726 16.812-32.525 13.228-51.933zm122.109-156.227-17.326-10.222 17.326-10.222zm-32.086-18.931-12.114-7.147h24.227zm-32.086-1.513 17.326 10.222-17.326 10.222zm32.086 18.931 12.114 7.147h-24.227zm39.586-39.564h-79.173c-4.143 0-7.5 3.357-7.5 7.5v39.211h-25.017v-39.211c0-4.143-3.357-7.5-7.5-7.5h-79.173c-4.143 0-7.5 3.357-7.5 7.5v39.211h-40.309v-146.3h293.981v146.3h-40.309v-39.211c0-4.143-3.357-7.5-7.5-7.5zm-144.015 30.855 17.326-10.222v20.444zm-14.76-8.709-12.113-7.147h24.226zm-14.761 8.709-17.326 10.222v-20.444zm14.761 8.709 12.113 7.147h-24.226zm221.584 61.641v-208.294c0-4.143-3.357-7.5-7.5-7.5h-441c-4.143 0-7.5 3.357-7.5 7.5v136.58c0 4.143 3.357 7.5 7.5 7.5s7.5-3.357 7.5-7.5v-129.08h117.021v153.8c0 4.143 3.357 7.5 7.5 7.5h301.479v39.494h-426v-41.724c0-4.143-3.357-7.5-7.5-7.5s-7.5 3.357-7.5 7.5v41.724h-13v-218.21c0-5.834 4.746-10.58 10.58-10.58h460.84c5.834 0 10.58 4.746 10.58 10.58v218.21z"/><path d="m246.653 323.667c-4.143 0-7.5 3.357-7.5 7.5s3.357 7.5 7.5 7.5h18.694c4.143 0 7.5-3.357 7.5-7.5s-3.357-7.5-7.5-7.5z"/><path d="m67.498 116.371h68.255c4.143 0 7.5-3.357 7.5-7.5s-3.357-7.5-7.5-7.5h-68.255c-4.143 0-7.5 3.357-7.5 7.5s3.357 7.5 7.5 7.5z"/><path d="m67.498 154.717h68.255c4.143 0 7.5-3.357 7.5-7.5s-3.357-7.5-7.5-7.5h-68.255c-4.143 0-7.5 3.357-7.5 7.5s3.357 7.5 7.5 7.5z"/><path d="m67.498 193.065h68.255c4.143 0 7.5-3.357 7.5-7.5s-3.357-7.5-7.5-7.5h-68.255c-4.143 0-7.5 3.357-7.5 7.5s3.357 7.5 7.5 7.5z"/><path d="m67.498 231.412h68.255c4.143 0 7.5-3.357 7.5-7.5s-3.357-7.5-7.5-7.5h-68.255c-4.143 0-7.5 3.357-7.5 7.5s3.357 7.5 7.5 7.5z"/><path d="m428.691 103.871c0-4.143-3.357-7.5-7.5-7.5h-82.316c-4.143 0-7.5 3.357-7.5 7.5s3.357 7.5 7.5 7.5h23.696l-40.56 10.552-40.56-10.552h27.438c4.143 0 7.5-3.357 7.5-7.5s-3.357-7.5-7.5-7.5h-86.059c-4.143 0-7.5 3.357-7.5 7.5v51.604c0 4.143 3.357 7.5 7.5 7.5h198.362c4.143 0 7.5-3.357 7.5-7.5v-51.604zm-15 9.701v32.201l-61.89-16.101zm-51.12 34.402h-81.121l40.56-10.552zm-132.242-2.201v-32.201l61.89 16.101z"/></g></g></svg>